<svg aria-hidden="true" style="position: absolute; width: 0; height: 0; overflow: hidden;" version="1.1" xmlns="http://www.w3.org/2000/svg" xmlns:xlink="http://www.w3.org/1999/xlink">
<defs>
<symbol id="icon-1" viewBox="0 0 32 32">
<path fill="" style="" opacity="0.8" d="M20.944 10c-0.816-0.048-2.496-0.096-5.040-0.096h-0.336c-2.448 0-4.080 0.048-4.896 0.144-1.104 0.096-1.872 0.384-2.304 0.768-0.384 0.336-0.672 0.96-0.768 1.776-0.048 0.528-0.096 1.632-0.096 3.312v0.24c0 1.584 0.048 2.688 0.144 3.216 0.144 0.768 0.384 1.344 0.864 1.68 0.48 0.384 1.296 0.624 2.448 0.72 0.816 0.048 2.496 0.096 5.040 0.096h0.336c2.448 0 4.080-0.048 4.896-0.144 1.104-0.096 1.872-0.384 2.304-0.768 0.384-0.336 0.672-0.96 0.768-1.776 0.048-0.528 0.096-1.632 0.096-3.312v-0.24c0-1.584-0.048-2.688-0.144-3.216-0.144-0.768-0.384-1.344-0.864-1.68-0.48-0.384-1.296-0.624-2.448-0.72zM19.072 15.904l-5.28 3.168v-6.336l5.28 3.168z"></path>
<path fill="none" stroke="" style="" stroke-linejoin="miter" stroke-linecap="butt" stroke-miterlimit="4" stroke-width="0.8" d="M8 0.4h16c4.197 0 7.6 3.403 7.6 7.6v16c0 4.197-3.403 7.6-7.6 7.6h-16c-4.197 0-7.6-3.403-7.6-7.6v-16c0-4.197 3.403-7.6 7.6-7.6z"></path>
</symbol>
<symbol id="icon-11" viewBox="0 0 32 32">
<path fill="" style="" opacity="0.8" d="M23.63 12.854c-0.009-0.68-0.14-1.328-0.37-1.925l0.013 0.038c-0.409-1.033-1.212-1.835-2.219-2.232l-0.027-0.009c-0.552-0.213-1.191-0.343-1.858-0.357l-0.006-0c-0.821-0.037-1.082-0.047-3.164-0.047s-2.35 0-3.165 0.047c-0.673 0.014-1.312 0.144-1.903 0.371l0.039-0.013c-1.034 0.407-1.837 1.209-2.236 2.215l-0.009 0.027c-0.214 0.551-0.344 1.189-0.357 1.855l-0 0.005c-0.037 0.82-0.048 1.080-0.048 3.159s0 2.345 0.048 3.159c0.013 0.672 0.143 1.311 0.37 1.901l-0.013-0.038c0.409 1.033 1.213 1.834 2.221 2.232l0.027 0.009c0.594 0.232 1.224 0.363 1.864 0.384 0.821 0.036 1.081 0.047 3.164 0.047s2.35 0 3.165-0.048c0.673-0.014 1.312-0.143 1.903-0.37l-0.039 0.013c1.033-0.408 1.836-1.209 2.236-2.215l0.009-0.027c0.214-0.552 0.344-1.19 0.358-1.857l0-0.006c0.037-0.819 0.048-1.079 0.048-3.16-0.002-2.078-0.002-2.342-0.050-3.158zM15.994 19.918c-0.001 0-0.003 0-0.004 0-2.174 0-3.937-1.762-3.939-3.936v-0c0.001-2.175 1.764-3.937 3.939-3.937 0.002 0 0.003 0 0.005 0h-0c0.001 0 0.002 0 0.002 0 2.175 0 3.938 1.762 3.94 3.936v0c-0.002 2.175-1.765 3.937-3.94 3.937-0.001 0-0.002 0-0.003 0h0zM20.094 12.818c-0.507 0-0.918-0.411-0.918-0.918s0.411-0.918 0.918-0.918v0c0.507 0 0.918 0.411 0.918 0.918s-0.411 0.918-0.918 0.918v0z"></path>
<path fill="" style="" opacity="0.8" d="M15.995 18.386c1.327 0 2.402-1.076 2.402-2.402s-1.076-2.402-2.402-2.402v0c-1.327 0-2.402 1.076-2.402 2.402s1.076 2.402 2.402 2.402v0z"></path>
<path fill="none" stroke="" style="" stroke-linejoin="miter" stroke-linecap="butt" stroke-miterlimit="4" stroke-width="0.8" d="M8 0.4h16c4.197 0 7.6 3.403 7.6 7.6v16c0 4.197-3.403 7.6-7.6 7.6h-16c-4.197 0-7.6-3.403-7.6-7.6v-16c0-4.197 3.403-7.6 7.6-7.6z"></path>
</symbol>
<symbol id="icon-12" viewBox="0 0 32 32">
<path fill="" style="" opacity="0.8" d="M18.112 9.184h0.576v2.16h-0.72c-0.288 0-0.576 0-0.72 0.144s-0.144 0.288-0.144 0.624v0.768h1.584v1.824h-1.584v7.92h-2.448v-7.968h-1.296v-1.824h1.296v-0.624c0-1.056 0.144-1.824 0.432-2.16 0.432-0.624 1.296-0.912 2.592-0.912 0.144 0.048 0.288 0.048 0.432 0.048z"></path>
<path fill="none" stroke="" style="" stroke-linejoin="miter" stroke-linecap="butt" stroke-miterlimit="4" stroke-width="0.8" d="M8 0.4h16c4.197 0 7.6 3.403 7.6 7.6v16c0 4.197-3.403 7.6-7.6 7.6h-16c-4.197 0-7.6-3.403-7.6-7.6v-16c0-4.197 3.403-7.6 7.6-7.6z"></path>
</symbol>
</defs>
</svg>
