<svg aria-hidden="true" style="position: absolute; width: 0; height: 0; overflow: hidden;" version="1.1" xmlns="http://www.w3.org/2000/svg" xmlns:xlink="http://www.w3.org/1999/xlink">
<defs>
<symbol id="icon-logo-10-2" viewBox="0 0 30 32">
<path fill="#000" style="fill: var(--color1, #000)" d="M20.989 15.674l-3.46-7.926-0.755-0.524-0.884-0.281-1.197-0.322-1.405 0.604-0.937 0.523 3.538 7.927h5.099z"></path>
<path fill="#000" style="fill: var(--color1, #000)" d="M8.571 13.023l3.46 7.945 0.755 0.524 0.884 0.282 1.197 0.323 1.405-0.605 0.937-0.524-3.538-7.945h-5.099z"></path>
<path fill="#fff" style="fill: var(--color2, #fff)" d="M12.166 7.851l-5.372 7.765 5.372 0.057 3.883-7.823c0.273-0.8 1.126-0.334 1.518 0-1.677-3.073-4.3-1.28-5.401 0zM17.373 20.867l5.372-7.765-5.372-0.057-3.883 7.823c-0.273 0.8-1.126 0.334-1.518 0 1.677 3.073 4.3 1.28 5.402 0z"></path>
</symbol>
<symbol id="icon-logo-12-1" viewBox="0 0 28 32">
<path fill="#000" style="fill: var(--color1, #000)" d="M21.073 16.002l-3.834-8.783-0.836-0.579-0.98-0.312-1.326-0.357-1.557 0.669-1.038 0.579 3.92 8.783h5.65z"></path>
<path fill="#000" style="fill: var(--color1, #000)" d="M7.314 13.065l3.834 8.803 0.836 0.581 0.98 0.313 1.326 0.357 1.556-0.67 1.038-0.581-3.92-8.803h-5.65z"></path>
<path fill="#fff" style="fill: var(--color2, #fff)" d="M11.297 7.335l-5.952 8.604 5.952 0.064 4.303-8.667c0.302-0.887 1.247-0.369 1.682 0-1.858-3.405-4.764-1.419-5.985 0zM17.066 21.756l5.952-8.604-5.952-0.064-4.303 8.667c-0.302 0.887-1.247 0.369-1.682 0 1.858 3.405 4.764 1.419 5.985 0z"></path>
</symbol>
</defs>
</svg>
